<svg width="24" height="26" viewBox="0 0 24 26" fill="none" xmlns="http://www.w3.org/2000/svg">
<path d="M22.8284 14.0384V13.4789C22.8284 12.4482 22.3924 11.5403 21.7348 11.0153V4.91215C21.7348 3.30638 20.6675 2 19.3557 2H4.64433C3.33248 2 2.26519 3.30638 2.26519 4.91215V11.0152C1.60753 11.5402 1.17159 12.4481 1.17159 13.4788V14.0383C0.498187 14.2554 0 15.007 0 15.8985V22.4451C0 23.475 0.664781 24.3183 1.49667 24.3662V25.141C1.49667 25.6154 1.81088 26 2.19844 26C2.586 26 2.9002 25.6154 2.9002 25.141V24.3685H21.0998V25.141C21.0998 25.6154 21.414 26 21.8015 26C22.1891 26 22.5033 25.6154 22.5033 25.141V24.3662C23.3352 24.3183 24 23.475 24 22.445V15.8985C24 15.0069 23.5018 14.2554 22.8284 14.0384ZM3.66877 4.91215C3.66877 4.25368 4.10639 3.718 4.64433 3.718H19.3557C19.8936 3.718 20.3312 4.25368 20.3312 4.91215V10.539H19.3955V9.02492C19.3955 7.96516 18.6912 7.10294 17.8253 7.10294H14.0492C13.1834 7.10294 12.479 7.96516 12.479 9.02492V10.539H11.521V9.02492C11.521 7.96516 10.8166 7.10294 9.95081 7.10294H6.17466C5.30883 7.10294 4.60448 7.96516 4.60448 9.02492V10.539H3.66877V4.91215ZM17.9919 9.02487V10.335C17.9919 10.4475 17.9172 10.5389 17.8253 10.5389H14.0492C13.9573 10.5389 13.8826 10.4474 13.8826 10.335V9.02487C13.8826 8.91241 13.9574 8.82095 14.0492 8.82095H17.8253C17.9172 8.82095 17.9919 8.91241 17.9919 9.02487ZM10.1174 9.02487V10.335C10.1174 10.4475 10.0426 10.5389 9.95081 10.5389H6.17466C6.08278 10.5389 6.00806 10.4474 6.00806 10.335V9.02487C6.00806 8.91241 6.08283 8.82095 6.17466 8.82095H9.95081C10.0426 8.82095 10.1174 8.91241 10.1174 9.02487ZM2.57517 13.4788C2.57517 12.8051 3.02297 12.257 3.57338 12.257H20.4266C20.977 12.257 21.4248 12.8051 21.4248 13.4788V13.975H2.57517V13.4788ZM22.5964 22.445C22.5964 22.5583 22.5211 22.6505 22.4286 22.6505H1.57139C1.47886 22.6505 1.40353 22.5583 1.40353 22.445V15.8985C1.40353 15.7853 1.47881 15.6931 1.57139 15.6931H22.4286C22.5211 15.6931 22.5965 15.7853 22.5965 15.8985L22.5964 22.445Z" fill="#262626"/>
</svg>
