<svg width="24" height="24" viewBox="0 0 24 24" fill="none" xmlns="http://www.w3.org/2000/svg">
<path d="M11.6482 0.00385128V0C11.6247 0 11.6016 0.00154051 11.5786 0.00154051C11.5555 0.00154051 11.5325 0 11.5089 0V0.00385128C6.79711 0.0858835 3 4.2882 3 9.46413C3 16.439 10.483 23.0593 11.5786 24C12.6743 23.0595 20.1571 16.4388 20.1571 9.46413C20.1571 4.2882 16.3602 0.0858835 11.6482 0.00385128ZM11.6482 13.5351C9.18283 13.5351 7.18459 11.3487 7.18459 8.65112C7.18459 5.95273 9.18283 3.76597 11.6482 3.76597C14.1137 3.76597 16.1121 5.95273 16.1121 8.65112C16.1121 11.3487 14.1137 13.5351 11.6482 13.5351Z" fill="#262626"/>
</svg>
