<svg width="24" height="24" viewBox="0 0 24 24" fill="none" xmlns="http://www.w3.org/2000/svg">
<path d="M15.4 8.4C15.4 10.0569 14.0569 11.4 12.4 11.4C10.7431 11.4 9.4 10.0569 9.4 8.4C9.4 6.74315 10.7431 5.4 12.4 5.4C14.0569 5.4 15.4 6.74315 15.4 8.4Z" fill="#0A89FF"/>
<path fill-rule="evenodd" clip-rule="evenodd" d="M4 8.4C4 3.756 7.756 0 12.4 0C17.044 0 20.8 3.756 20.8 8.4C20.8 14.7 12.4 24 12.4 24C12.4 24 4 14.7 4 8.4ZM12.4 2.4C9.088 2.4 6.4 5.088 6.4 8.4C6.4 11.82 9.904 17.052 12.4 20.256C14.944 17.028 18.4 11.856 18.4 8.4C18.4 5.088 15.712 2.4 12.4 2.4Z" fill="#0A89FF"/>
</svg>
