<svg width="24" height="24" viewBox="0 0 24 24" fill="none" xmlns="http://www.w3.org/2000/svg">
<path d="M24 12.808C24 13.3085 23.5943 13.7143 23.0938 13.7143H14.6205C14.12 13.7143 13.7143 14.12 13.7143 14.6205V23.0938C13.7143 23.5943 13.3085 24 12.808 24H11.192C10.6915 24 10.2857 23.5943 10.2857 23.0938V14.6205C10.2857 14.12 9.87997 13.7143 9.37946 13.7143H0.906251C0.405743 13.7143 0 13.3085 0 12.808V11.192C0 10.6915 0.405742 10.2857 0.90625 10.2857H9.37946C9.87997 10.2857 10.2857 9.87997 10.2857 9.37946V0.906251C10.2857 0.405743 10.6915 0 11.192 0H12.808C13.3085 0 13.7143 0.405742 13.7143 0.90625V9.37946C13.7143 9.87997 14.12 10.2857 14.6205 10.2857H23.0938C23.5943 10.2857 24 10.6915 24 11.192V12.808Z" fill="#262626"/>
</svg>
