<svg width="24" height="24" viewBox="0 0 24 24" fill="none" xmlns="http://www.w3.org/2000/svg">
<path fill-rule="evenodd" clip-rule="evenodd" d="M4.42425 2C4.03347 2 3.71669 2.31678 3.71669 2.70756C3.71669 3.09833 4.03347 3.41511 4.42425 3.41511H17.7892C20.4378 3.41511 22.5849 5.56221 22.5849 8.21078V21.5758C22.5849 21.9665 22.9017 22.2833 23.2924 22.2833C23.6832 22.2833 24 21.9665 24 21.5758V8.21078C24 4.78066 21.2193 2 17.7892 2H4.42425ZM5.71074 5.35194C5.43442 5.07562 4.98642 5.07562 4.71011 5.35194L0.207239 9.85481C-0.0690796 10.1311 -0.0690796 10.5791 0.207239 10.8554C0.483557 11.1318 0.931558 11.1318 1.20788 10.8554L4.50287 7.56045V12.9883C4.50287 16.4184 7.28353 19.1991 10.7136 19.1991H16.1415L12.8465 22.4941C12.5702 22.7704 12.5702 23.2184 12.8465 23.4947C13.1228 23.771 13.5708 23.771 13.8471 23.4947L18.35 18.9918C18.6263 18.7155 18.6263 18.2675 18.35 17.9912L13.8471 13.4883C13.5708 13.212 13.1228 13.212 12.8465 13.4883C12.5702 13.7647 12.5702 14.2127 12.8465 14.489L16.1415 17.784H10.7136C8.06508 17.784 5.91798 15.6369 5.91798 12.9883V7.56045L9.21297 10.8554C9.48929 11.1318 9.93729 11.1318 10.2136 10.8554C10.4899 10.5791 10.4899 10.1311 10.2136 9.85481L5.71074 5.35194Z" fill="#262626"/>
</svg>
