<svg width="24" height="24" viewBox="0 0 24 24" fill="none" xmlns="http://www.w3.org/2000/svg">
<path d="M20.0239 0H4.41069C3.08141 0 2 1.08141 2 2.41064V3.52978C2 3.82041 2.17634 4.06978 2.42783 4.17689L2.83939 10.7967C2.9083 11.9047 3.83211 12.7727 4.94253 12.7727H5.96764V13.6751C5.96764 15.1782 6.64438 16.576 7.82427 17.5101C8.5513 18.0857 8.88378 19.0033 8.69188 19.9049L8.23067 22.072C8.12998 22.5452 8.24685 23.0323 8.55125 23.4083C8.8557 23.7843 9.30772 24 9.79152 24H14.6431C15.1268 24 15.5789 23.7843 15.8833 23.4083C16.1877 23.0324 16.3046 22.5453 16.2038 22.0721L15.7426 19.905C15.5508 19.0034 15.8832 18.0858 16.6102 17.5102C17.7902 16.576 18.4669 15.1782 18.4669 13.6752V12.7728H19.492C20.6024 12.7728 21.5263 11.9048 21.5952 10.7968L22.0067 4.17694C22.2582 4.06983 22.4345 3.82045 22.4345 3.52983V2.41064C22.4346 1.08141 21.3531 0 20.0239 0ZM17.0607 13.6751C17.0607 14.7458 16.5783 15.7418 15.7374 16.4076C14.5883 17.3173 14.0633 18.7695 14.3672 20.1976L14.8284 22.3648C14.844 22.4378 14.8163 22.4914 14.7903 22.5234C14.7643 22.5555 14.7178 22.5937 14.643 22.5937H9.79147C9.71675 22.5937 9.67016 22.5555 9.64419 22.5234C9.61822 22.4914 9.59056 22.4378 9.60608 22.3648L10.0673 20.1976C10.3712 18.7695 9.84617 17.3173 8.69713 16.4076C7.85619 15.7417 7.37385 14.7458 7.37385 13.6751V12.7727H17.0606L17.0607 13.6751ZM18.4061 11.3665H6.02849V11.0496C6.02849 10.4411 6.52377 9.94608 7.13263 9.94608H17.3019C17.9107 9.94608 18.4061 10.4411 18.4061 11.0496L18.4061 11.3665ZM20.1916 10.7095C20.1759 10.9632 20.0252 11.1789 19.8124 11.2888V11.0496C19.8124 9.66572 18.6862 8.53983 17.302 8.53983H7.13267C5.74841 8.53983 4.62228 9.66572 4.62228 11.0496V11.2888C4.40938 11.1789 4.25877 10.9631 4.24302 10.7095L3.84036 4.23291H20.5943L20.1916 10.7095ZM21.0283 2.82666H3.40625V2.41064C3.40625 1.85681 3.85686 1.40625 4.41069 1.40625H20.0239C20.5777 1.40625 21.0283 1.85681 21.0283 2.41064V2.82666Z" fill="#262626"/>
</svg>
